<svg xmlns="http://www.w3.org/2000/svg" width="1240" height="691" viewBox="0 0 1240 691">
<rect width="100%" height="100%" fill="#0b0f0d"/>
<g font-family="Menlo, DejaVu Sans Mono, Consolas, monospace" font-size="12" xml:space="preserve">
<rect x="72.8" y="8.0" width="7.2" height="15" fill="#e0a33a"/>
<rect x="80.0" y="8.0" width="7.2" height="15" fill="#e0a33a"/>
<rect x="87.2" y="8.0" width="7.2" height="15" fill="#e0a33a"/>
<rect x="94.4" y="8.0" width="7.2" height="15" fill="#e0a33a"/>
<rect x="101.6" y="8.0" width="7.2" height="15" fill="#e0a33a"/>
<rect x="108.8" y="8.0" width="7.2" height="15" fill="#e0a33a"/>
<rect x="116.0" y="8.0" width="7.2" height="15" fill="#e0a33a"/>
<rect x="123.2" y="8.0" width="7.2" height="15" fill="#e0a33a"/>
<rect x="1181.6" y="8.0" width="7.2" height="7.5" fill="#000000"/>
<rect x="1181.6" y="15.5" width="7.2" height="7.5" fill="#0e0b0f"/>
<rect x="1188.8" y="8.0" width="7.2" height="7.5" fill="#131012"/>
<rect x="1188.8" y="15.5" width="7.2" height="7.5" fill="#211f1e"/>
<rect x="1196.0" y="8.0" width="7.2" height="7.5" fill="#2f2c2a"/>
<rect x="1196.0" y="15.5" width="7.2" height="7.5" fill="#282628"/>
<rect x="1203.2" y="8.0" width="7.2" height="7.5" fill="#312e2b"/>
<rect x="1203.2" y="15.5" width="7.2" height="7.5" fill="#3f3a35"/>
<rect x="1210.4" y="8.0" width="7.2" height="7.5" fill="#191716"/>
<rect x="1210.4" y="15.5" width="7.2" height="7.5" fill="#232120"/>
<rect x="1217.6" y="8.0" width="7.2" height="7.5" fill="#000000"/>
<rect x="1217.6" y="15.5" width="7.2" height="7.5" fill="#100e11"/>
<text y="19" fill="#6f7d73" x="15.2 22.4">F1</text>
<text y="19" fill="#6f7d73" x="36.8 44.0 51.2 58.4">Desk</text>
<text y="19" fill="#0b0f0d" x="80.0 87.2">F2</text>
<text y="19" fill="#0b0f0d" x="101.6 108.8 116.0">Map</text>
<text y="19" fill="#6f7d73" x="137.6 144.8">F3</text>
<text y="19" fill="#6f7d73" x="159.2 166.4 173.6 180.8 188.0 195.2">Forces</text>
<text y="19" fill="#6f7d73" x="216.8 224.0">F4</text>
<text y="19" fill="#6f7d73" x="238.4 245.6 252.8 260.0 267.2 274.4 281.6 288.8 296.0">Contracts</text>
<text y="19" fill="#6f7d73" x="317.6 324.8">F5</text>
<text y="19" fill="#6f7d73" x="339.2 346.4 353.6 360.8 368.0 375.2">Ledger</text>
<text y="19" fill="#6f7d73" x="396.8 404.0">F6</text>
<text y="19" fill="#6f7d73" x="418.4 425.6 432.8 440.0 447.2 454.4">Supply</text>
<text y="19" fill="#6f7d73" x="476.0 483.2">F7</text>
<text y="19" fill="#6f7d73" x="497.6 504.8">HQ</text>
<text y="19" fill="#6f7d73" x="526.4 533.6">F8</text>
<text y="19" fill="#6f7d73" x="548.0 555.2 562.4">Lab</text>
<text y="19" fill="#6f7d73" x="584.0 591.2">F9</text>
<text y="19" fill="#6f7d73" x="605.6 612.8 620.0 627.2 634.4 641.6">People</text>
<text y="19" fill="#6f7d73" x="663.2 670.4 677.6">F10</text>
<text y="19" fill="#6f7d73" x="692.0 699.2 706.4 713.6 720.8 728.0">Market</text>
<text y="19" fill="#6f7d73" x="1066.4 1073.6 1080.8">The</text>
<text y="19" fill="#6f7d73" x="1095.2 1102.4 1109.6 1116.8 1124.0 1131.2 1138.4 1145.6 1152.8 1160.0">Unforgiven</text>
<text y="34" fill="#e0a33a" x="8.0 15.2 22.4 29.6 36.8 44.0 51.2 58.4 65.6 72.8">3025-02-10</text>
<text y="34" fill="#c8d3c5" x="94.4 101.6 108.8">day</text>
<text y="34" fill="#c8d3c5" x="123.2 130.4">40</text>
<text y="34" fill="#c8d3c5" x="152.0">·</text>
<text y="34" fill="#c8d3c5" x="173.6 180.8 188.0 195.2 202.4 209.6">outfit</text>
<text y="34" fill="#e0a33a" x="224.0 231.2 238.4 245.6 252.8 260.0 267.2 274.4 281.6">8,649,790</text>
<text y="34" fill="#c8d3c5" x="296.0">C</text>
<text y="34" fill="#c8d3c5" x="317.6">·</text>
<text y="34" fill="#c8d3c5" x="339.2 346.4 353.6">rep</text>
<text y="34" fill="#7fc97f" x="368.0">0</text>
<text y="34" fill="#c8d3c5" x="389.6">·</text>
<text y="34" fill="#c8d3c5" x="411.2">1</text>
<text y="34" fill="#c8d3c5" x="425.6 432.8 440.0 447.2 454.4 461.6 468.8 476.0 483.2">companies</text>
<text y="34" fill="#c8d3c5" x="497.6">·</text>
<text y="34" fill="#c8d3c5" x="512.0">1</text>
<text y="34" fill="#c8d3c5" x="526.4 533.6 540.8">HQs</text>
<text y="34" fill="#c8d3c5" x="555.2">·</text>
<text y="34" fill="#c8d3c5" x="569.6 576.8">32</text>
<text y="34" fill="#c8d3c5" x="591.2 598.4 605.6 612.8 620.0">hulls</text>
<text y="34" fill="#c8d3c5" x="634.4">·</text>
<text y="34" fill="#c8d3c5" x="648.8 656.0 663.2">196</text>
<text y="34" fill="#c8d3c5" x="677.6 684.8 692.0 699.2 706.4 713.6">people</text>
<text y="34" fill="#c8d3c5" x="735.2">·</text>
<text y="34" fill="#c8d3c5" x="756.8 764.0 771.2 778.4 785.6">inbox</text>
<text y="34" fill="#7fc97f" x="800.0">0</text>
<text y="34" fill="#c8d3c5" x="821.6">·</text>
<text y="34" fill="#c8d3c5" x="843.2 850.4 857.6 864.8 872.0 879.2 886.4 893.6 900.8">checklist</text>
<text y="34" fill="#7fc97f" x="915.2">0</text>
<text y="34" fill="#c8d3c5" x="936.8">·</text>
<text y="34" fill="#c8d3c5" x="958.4 965.6 972.8 980.0">turn</text>
<text y="34" fill="#c8d3c5" x="994.4 1001.6 1008.8 1016.0 1023.2 1030.4">ready:</text>
<text y="34" fill="#7fc97f" x="1044.8 1052.0 1059.2">YES</text>
<rect x="15.2" y="38.0" width="7.2" height="15" fill="#0f5c5c"/>
<rect x="22.4" y="38.0" width="7.2" height="15" fill="#0f5c5c"/>
<rect x="29.6" y="38.0" width="7.2" height="15" fill="#0f5c5c"/>
<rect x="36.8" y="38.0" width="7.2" height="15" fill="#0f5c5c"/>
<rect x="44.0" y="38.0" width="7.2" height="15" fill="#0f5c5c"/>
<rect x="51.2" y="38.0" width="7.2" height="15" fill="#0f5c5c"/>
<rect x="58.4" y="38.0" width="7.2" height="15" fill="#0f5c5c"/>
<rect x="65.6" y="38.0" width="7.2" height="15" fill="#0f5c5c"/>
<rect x="72.8" y="38.0" width="7.2" height="15" fill="#0f5c5c"/>
<rect x="80.0" y="38.0" width="7.2" height="15" fill="#0f5c5c"/>
<text y="49" fill="#c8d3c5" x="8.0">┌</text>
<text y="49" fill="#0b0f0d" x="22.4 29.6 36.8 44.0">STAR</text>
<text y="49" fill="#0b0f0d" x="58.4 65.6 72.8">MAP</text>
<text y="49" fill="#6fc3c3" x="87.2 94.4 101.6 108.8 116.0 123.2 130.4 137.6 144.8 152.0 159.2 166.4 173.6 180.8 188.0 195.2 202.4 209.6 216.8 224.0 231.2 238.4 245.6 252.8 260.0 267.2 274.4 281.6 288.8 296.0 303.2 310.4 317.6 324.8 332.0 339.2 346.4 353.6 360.8 368.0 375.2 382.4 389.6 396.8 404.0 411.2 418.4 425.6 432.8 440.0 447.2 454.4 461.6 468.8 476.0 483.2 490.4 497.6 504.8 512.0 519.2 526.4 533.6 540.8 548.0 555.2">──────────────────────────────────────────────────────────────────</text>
<text y="49" fill="#6f7d73" x="569.6 576.8">27</text>
<text y="49" fill="#6f7d73" x="591.2 598.4 605.6 612.8 620.0 627.2">worlds</text>
<text y="49" fill="#6f7d73" x="641.6">·</text>
<text y="49" fill="#6f7d73" x="656.0 663.2">10</text>
<text y="49" fill="#6f7d73" x="677.6 684.8">in</text>
<text y="49" fill="#6f7d73" x="699.2 706.4 713.6 720.8">ring</text>
<text y="49" fill="#6f7d73" x="735.2">·</text>
<text y="49" fill="#6f7d73" x="749.6 756.8">13</text>
<text y="49" fill="#6f7d73" x="771.2 778.4 785.6 792.8 800.0 807.2 814.4 821.6 828.8">beachhead</text>
<text y="49" fill="#6f7d73" x="843.2">·</text>
<text y="49" fill="#6f7d73" x="857.6">4</text>
<text y="49" fill="#6f7d73" x="872.0 879.2 886.4 893.6">dark</text>
<text y="49" fill="#6fc3c3" x="908.0">─</text>
<text y="49" fill="#c8d3c5" x="915.2 922.4">┐┌</text>
<text y="49" fill="#c8d3c5" x="936.8 944.0 951.2 958.4 965.6">WORLD</text>
<text y="49" fill="#c8d3c5" x="980.0 987.2 994.4 1001.6 1008.8 1016.0 1023.2 1030.4 1037.6 1044.8 1052.0 1059.2 1066.4 1073.6 1080.8 1088.0 1095.2 1102.4 1109.6 1116.8 1124.0 1131.2 1138.4 1145.6 1152.8 1160.0 1167.2 1174.4 1181.6 1188.8 1196.0 1203.2 1210.4 1217.6 1224.8">──────────────────────────────────┐</text>
<text y="64" fill="#c8d3c5" x="8.0">│</text>
<text y="64" fill="#6f7d73" x="108.8 116.0">..</text>
<text y="64" fill="#6f7d73" x="555.2 562.4">..</text>
<text y="64" fill="#6f7d73" x="663.2">,</text>
<text y="64" fill="#c8d3c5" x="915.2 922.4">││</text>
<text y="64" fill="#e0a33a" x="936.8 944.0 951.2 958.4 965.6 972.8 980.0">Galatea</text>
<text y="64" fill="#c8d3c5" x="1008.8 1016.0">LC</text>
<text y="64" fill="#c8d3c5" x="1030.4">·</text>
<text y="64" fill="#c8d3c5" x="1044.8 1052.0 1059.2 1066.4 1073.6 1080.8 1088.0 1095.2">industry</text>
<text y="64" fill="#c8d3c5" x="1109.6">3</text>
<text y="64" fill="#c8d3c5" x="1224.8">│</text>
<text y="79" fill="#c8d3c5" x="8.0">│</text>
<text y="79" fill="#6f7d73" x="108.8">.</text>
<text y="79" fill="#6f7d73" x="562.4 569.6">..</text>
<text y="79" fill="#c8d3c5" x="620.0">o</text>
<text y="79" fill="#c8d3c5" x="634.4 641.6 648.8 656.0 663.2">Moore</text>
<text y="79" fill="#6f7d73" x="670.4">,</text>
<text y="79" fill="#e0a33a" x="677.6">^</text>
<text y="79" fill="#c8d3c5" x="915.2 922.4">││</text>
<text y="79" fill="#c8d3c5" x="1224.8">│</text>
<text y="94" fill="#c8d3c5" x="8.0">│</text>
<text y="94" fill="#6f7d73" x="101.6">.</text>
<text y="94" fill="#c8d3c5" x="569.6">o</text>
<text y="94" fill="#6f7d73" x="576.8">.</text>
<text y="94" fill="#c8d3c5" x="584.0 591.2 598.4 605.6 612.8">Sabik</text>
<text y="94" fill="#6f7d73" x="670.4">,</text>
<text y="94" fill="#c8d3c5" x="915.2 922.4">││</text>
<text y="94" fill="#c8d3c5" x="951.2 958.4">36</text>
<text y="94" fill="#c8d3c5" x="972.8 980.0">LY</text>
<text y="94" fill="#c8d3c5" x="994.4">·</text>
<text y="94" fill="#c8d3c5" x="1008.8">2</text>
<text y="94" fill="#c8d3c5" x="1023.2 1030.4 1037.6 1044.8 1052.0">jumps</text>
<text y="94" fill="#c8d3c5" x="1066.4 1073.6 1080.8 1088.0">from</text>
<text y="94" fill="#c8d3c5" x="1102.4 1109.6 1116.8 1124.0 1131.2 1138.4 1145.6">Solaris</text>
<text y="94" fill="#c8d3c5" x="1160.0 1167.2 1174.4">VII</text>
<text y="94" fill="#c8d3c5" x="1188.8 1196.0 1203.2 1210.4">Regi</text>
<text y="94" fill="#c8d3c5" x="1224.8">│</text>
<text y="109" fill="#c8d3c5" x="8.0">│</text>
<text y="109" fill="#6f7d73" x="101.6">.</text>
<text y="109" fill="#c8d3c5" x="202.4">o</text>
<text y="109" fill="#c8d3c5" x="216.8 224.0 231.2 238.4 245.6 252.8">Alkaid</text>
<text y="109" fill="#6f7d73" x="576.8">.</text>
<text y="109" fill="#6f7d73" x="670.4 677.6">,,</text>
<text y="109" fill="#c8d3c5" x="915.2 922.4">││</text>
<text y="109" fill="#c8d3c5" x="1224.8">│</text>
<text y="124" fill="#c8d3c5" x="8.0">│</text>
<text y="124" fill="#6f7d73" x="94.4">.</text>
<text y="124" fill="#6f7d73" x="576.8">.</text>
<text y="124" fill="#6f7d73" x="677.6">,</text>
<text y="124" fill="#c8d3c5" x="915.2 922.4">││</text>
<text y="124" fill="#c8d3c5" x="936.8 944.0 951.2 958.4 965.6 972.8 980.0 987.2 994.4">companies</text>
<text y="124" fill="#c8d3c5" x="1030.4">0</text>
<text y="124" fill="#c8d3c5" x="1044.8 1052.0 1059.2 1066.4">here</text>
<text y="124" fill="#c8d3c5" x="1224.8">│</text>
<text y="139" fill="#c8d3c5" x="8.0">│</text>
<text y="139" fill="#6f7d73" x="94.4">.</text>
<text y="139" fill="#6f7d73" x="576.8">.</text>
<text y="139" fill="#6f7d73" x="677.6">,</text>
<text y="139" fill="#6f7d73" x="771.2">o</text>
<text y="139" fill="#6f7d73" x="785.6 792.8 800.0 807.2">Vega</text>
<text y="139" fill="#c8d3c5" x="915.2 922.4">││</text>
<text y="139" fill="#c8d3c5" x="936.8 944.0 951.2 958.4 965.6">local</text>
<text y="139" fill="#c8d3c5" x="980.0 987.2 994.4 1001.6 1008.8 1016.0">supply</text>
<text y="139" fill="#c8d3c5" x="1030.4 1037.6 1044.8 1052.0">×1.0</text>
<text y="139" fill="#c8d3c5" x="1066.4 1073.6 1080.8">(in</text>
<text y="139" fill="#c8d3c5" x="1095.2 1102.4 1109.6 1116.8 1124.0">ring)</text>
<text y="139" fill="#c8d3c5" x="1224.8">│</text>
<text y="154" fill="#c8d3c5" x="8.0">│</text>
<text y="154" fill="#6f7d73" x="94.4">.</text>
<text y="154" fill="#e0a33a" x="339.2">@</text>
<text y="154" fill="#c8d3c5" x="353.6 360.8 368.0 375.2 382.4 389.6 396.8">Solaris</text>
<text y="154" fill="#c8d3c5" x="411.2 418.4 425.6">VII</text>
<text y="154" fill="#6f7d73" x="576.8 584.0">..</text>
<text y="154" fill="#6f7d73" x="677.6">,</text>
<text y="154" fill="#c8d3c5" x="915.2 922.4">││</text>
<text y="154" fill="#c8d3c5" x="1224.8">│</text>
<text y="169" fill="#c8d3c5" x="8.0">│</text>
<text y="169" fill="#6f7d73" x="94.4">.</text>
<text y="169" fill="#6f7d73" x="576.8">.</text>
<text y="169" fill="#6f7d73" x="677.6">,</text>
<text y="169" fill="#c8d3c5" x="915.2 922.4">││</text>
<text y="169" fill="#c8d3c5" x="936.8 944.0 951.2 958.4 965.6 972.8">offers</text>
<text y="169" fill="#c8d3c5" x="987.2 994.4 1001.6 1008.8">here</text>
<text y="169" fill="#c8d3c5" x="1224.8">│</text>
<text y="184" fill="#c8d3c5" x="8.0">│</text>
<text y="184" fill="#c8d3c5" x="72.8">o</text>
<text y="184" fill="#c8d3c5" x="87.2 94.4 101.6 108.8 116.0 123.2">Graham</text>
<text y="184" fill="#c8d3c5" x="137.6 144.8">IV</text>
<text y="184" fill="#c8d3c5" x="504.8">o</text>
<text y="184" fill="#c8d3c5" x="519.2 526.4 533.6 540.8 548.0 555.2 562.4 569.6 576.8 584.0 591.2 598.4 605.6 612.8 620.0 627.2 634.4">ZebebelgenuoiDyev</text>
<text y="184" fill="#6f7d73" x="677.6">,</text>
<text y="184" fill="#c8d3c5" x="915.2 922.4">││</text>
<text y="184" fill="#6f7d73" x="951.2 958.4 965.6 972.8">none</text>
<text y="184" fill="#c8d3c5" x="1224.8">│</text>
<text y="199" fill="#c8d3c5" x="8.0">│</text>
<text y="199" fill="#6f7d73" x="94.4 101.6">..</text>
<text y="199" fill="#c8d3c5" x="252.8">o</text>
<text y="199" fill="#c8d3c5" x="267.2 274.4 281.6 288.8">Skye</text>
<text y="199" fill="#6f7d73" x="576.8">.</text>
<text y="199" fill="#6f7d73" x="670.4 677.6">,,</text>
<text y="199" fill="#c8d3c5" x="915.2 922.4">││</text>
<text y="199" fill="#c8d3c5" x="1224.8">│</text>
<text y="214" fill="#c8d3c5" x="8.0">│</text>
<text y="214" fill="#6f7d73" x="101.6">.</text>
<text y="214" fill="#6f7d73" x="569.6 576.8">..</text>
<text y="214" fill="#6f7d73" x="670.4">,</text>
<text y="214" fill="#c8d3c5" x="915.2 922.4">││</text>
<text y="214" fill="#6f7d73" x="936.8 944.0 951.2">[f]</text>
<text y="214" fill="#6f7d73" x="965.6 972.8 980.0 987.2 994.4">found</text>
<text y="214" fill="#6f7d73" x="1008.8 1016.0">HQ</text>
<text y="214" fill="#6f7d73" x="1030.4 1037.6 1044.8 1052.0">here</text>
<text y="214" fill="#6f7d73" x="1073.6 1080.8 1088.0">[o]</text>
<text y="214" fill="#6f7d73" x="1102.4 1109.6 1116.8 1124.0 1131.2 1138.4 1145.6 1152.8">contract</text>
<text y="214" fill="#6f7d73" x="1167.2 1174.4 1181.6 1188.8 1196.0">board</text>
<text y="214" fill="#c8d3c5" x="1224.8">│</text>
<rect x="425.6" y="218.0" width="7.2" height="15" fill="#0f5c5c"/>
<rect x="440.0" y="218.0" width="7.2" height="15" fill="#0f5c5c"/>
<rect x="447.2" y="218.0" width="7.2" height="15" fill="#0f5c5c"/>
<rect x="454.4" y="218.0" width="7.2" height="15" fill="#0f5c5c"/>
<rect x="461.6" y="218.0" width="7.2" height="15" fill="#0f5c5c"/>
<rect x="468.8" y="218.0" width="7.2" height="15" fill="#0f5c5c"/>
<rect x="476.0" y="218.0" width="7.2" height="15" fill="#0f5c5c"/>
<rect x="483.2" y="218.0" width="7.2" height="15" fill="#0f5c5c"/>
<text y="229" fill="#c8d3c5" x="8.0">│</text>
<text y="229" fill="#6f7d73" x="101.6 108.8">..</text>
<text y="229" fill="#0b0f0d" x="425.6">*</text>
<text y="229" fill="#0b0f0d" x="440.0 447.2 454.4 461.6 468.8 476.0 483.2">Galatea</text>
<text y="229" fill="#6f7d73" x="562.4 569.6">..</text>
<text y="229" fill="#6f7d73" x="670.4">,</text>
<text y="229" fill="#c8d3c5" x="915.2 922.4">││</text>
<text y="229" fill="#c8d3c5" x="1224.8">│</text>
<text y="244" fill="#c8d3c5" x="8.0">│</text>
<text y="244" fill="#6f7d73" x="108.8 116.0">..</text>
<text y="244" fill="#6f7d73" x="562.4">.</text>
<text y="244" fill="#6f7d73" x="663.2">,</text>
<text y="244" fill="#c8d3c5" x="915.2 922.4">││</text>
<text y="244" fill="#c8d3c5" x="1224.8">│</text>
<text y="259" fill="#c8d3c5" x="8.0">│</text>
<text y="259" fill="#c8d3c5" x="116.0">o</text>
<text y="259" fill="#c8d3c5" x="130.4 137.6 144.8 152.0 159.2 166.4">Oliver</text>
<text y="259" fill="#6f7d73" x="555.2 562.4">..</text>
<text y="259" fill="#6f7d73" x="656.0 663.2">,,</text>
<text y="259" fill="#c8d3c5" x="915.2 922.4">││</text>
<text y="259" fill="#c8d3c5" x="1224.8">│</text>
<text y="274" fill="#c8d3c5" x="8.0">│</text>
<text y="274" fill="#6f7d73" x="22.4">,</text>
<text y="274" fill="#6f7d73" x="123.2 130.4">..</text>
<text y="274" fill="#c8d3c5" x="296.0">o</text>
<text y="274" fill="#c8d3c5" x="310.4 317.6 324.8 332.0 339.2 346.4">Summer</text>
<text y="274" fill="#6f7d73" x="548.0 555.2">..</text>
<text y="274" fill="#c8d3c5" x="641.6">o</text>
<text y="274" fill="#c8d3c5" x="656.0 663.2 670.4 677.6 684.8 692.0">Imbros</text>
<text y="274" fill="#c8d3c5" x="706.4 713.6 720.8">III</text>
<text y="274" fill="#c8d3c5" x="915.2 922.4">││</text>
<text y="274" fill="#c8d3c5" x="1224.8">│</text>
<text y="289" fill="#c8d3c5" x="8.0">│</text>
<text y="289" fill="#6f7d73" x="22.4">,</text>
<text y="289" fill="#6f7d73" x="130.4 137.6">..</text>
<text y="289" fill="#6f7d73" x="540.8 548.0">..</text>
<text y="289" fill="#c8d3c5" x="555.2">o</text>
<text y="289" fill="#c8d3c5" x="569.6 576.8 584.0 591.2 598.4">Lyons</text>
<text y="289" fill="#6f7d73" x="648.8 656.0">,,</text>
<text y="289" fill="#c8d3c5" x="915.2 922.4">││</text>
<text y="289" fill="#c8d3c5" x="1224.8">│</text>
<text y="304" fill="#c8d3c5" x="8.0">│</text>
<text y="304" fill="#6f7d73" x="29.6 36.8">,,</text>
<text y="304" fill="#6f7d73" x="137.6 144.8 152.0">...</text>
<text y="304" fill="#6f7d73" x="526.4 533.6">..</text>
<text y="304" fill="#6f7d73" x="641.6 648.8">,,</text>
<text y="304" fill="#c8d3c5" x="915.2 922.4">││</text>
<text y="304" fill="#c8d3c5" x="1224.8">│</text>
<text y="319" fill="#c8d3c5" x="8.0">│</text>
<text y="319" fill="#c8d3c5" x="36.8">o</text>
<text y="319" fill="#6f7d73" x="44.0">,</text>
<text y="319" fill="#c8d3c5" x="51.2 58.4 65.6 72.8 80.0 87.2 94.4 101.6">Callison</text>
<text y="319" fill="#6f7d73" x="152.0 159.2">..</text>
<text y="319" fill="#c8d3c5" x="476.0">o</text>
<text y="319" fill="#c8d3c5" x="490.4 497.6 504.8 512.0">Caph</text>
<text y="319" fill="#6f7d73" x="519.2">.</text>
<text y="319" fill="#e0a33a" x="526.4">^</text>
<text y="319" fill="#c8d3c5" x="584.0">o</text>
<text y="319" fill="#c8d3c5" x="598.4 605.6 612.8 620.0 627.2 634.4 641.6">Quentin</text>
<text y="319" fill="#c8d3c5" x="915.2 922.4">││</text>
<text y="319" fill="#c8d3c5" x="1224.8">│</text>
<text y="334" fill="#c8d3c5" x="8.0">│</text>
<text y="334" fill="#6f7d73" x="44.0 51.2">,,</text>
<text y="334" fill="#6f7d73" x="159.2 166.4 173.6">...</text>
<text y="334" fill="#6f7d73" x="497.6 504.8 512.0">...</text>
<text y="334" fill="#6f7d73" x="627.2 634.4">,,</text>
<text y="334" fill="#6f7d73" x="720.8">o</text>
<text y="334" fill="#6f7d73" x="735.2 742.4 749.6 756.8 764.0 771.2 778.4 785.6 792.8">Konstance</text>
<text y="334" fill="#c8d3c5" x="915.2 922.4">││</text>
<text y="334" fill="#c8d3c5" x="1224.8">│</text>
<text y="349" fill="#c8d3c5" x="8.0">│</text>
<text y="349" fill="#6f7d73" x="51.2 58.4">,,</text>
<text y="349" fill="#6f7d73" x="180.8 188.0">..</text>
<text y="349" fill="#6f7d73" x="483.2 490.4 497.6">...</text>
<text y="349" fill="#c8d3c5" x="540.8">o</text>
<text y="349" fill="#c8d3c5" x="555.2 562.4 569.6 576.8 584.0">Errai</text>
<text y="349" fill="#e0a33a" x="598.4">^</text>
<text y="349" fill="#6f7d73" x="620.0">,</text>
<text y="349" fill="#c8d3c5" x="915.2 922.4">││</text>
<text y="349" fill="#c8d3c5" x="1224.8">│</text>
<text y="364" fill="#c8d3c5" x="8.0">│</text>
<text y="364" fill="#6f7d73" x="58.4 65.6 72.8">,,,</text>
<text y="364" fill="#c8d3c5" x="152.0">o</text>
<text y="364" fill="#c8d3c5" x="166.4 173.6 180.8 188.0 195.2 202.4">Carver</text>
<text y="364" fill="#c8d3c5" x="216.8">V</text>
<text y="364" fill="#c8d3c5" x="389.6">o</text>
<text y="364" fill="#c8d3c5" x="404.0 411.2 418.4 425.6 432.8">Atria</text>
<text y="364" fill="#6f7d73" x="454.4 461.6 468.8 476.0 483.2">.....</text>
<text y="364" fill="#6f7d73" x="605.6 612.8 620.0">,,,</text>
<text y="364" fill="#c8d3c5" x="915.2 922.4">││</text>
<text y="364" fill="#c8d3c5" x="1224.8">│</text>
<text y="379" fill="#c8d3c5" x="8.0">│</text>
<text y="379" fill="#6f7d73" x="72.8 80.0">,,</text>
<text y="379" fill="#6f7d73" x="216.8 224.0 231.2 238.4 245.6">.....</text>
<text y="379" fill="#6f7d73" x="432.8 440.0 447.2 454.4">....</text>
<text y="379" fill="#6f7d73" x="591.2 598.4 605.6">,,,</text>
<text y="379" fill="#c8d3c5" x="915.2 922.4">││</text>
<text y="379" fill="#c8d3c5" x="1224.8">│</text>
<text y="394" fill="#c8d3c5" x="8.0">│</text>
<text y="394" fill="#6f7d73" x="87.2 94.4">,,</text>
<text y="394" fill="#6f7d73" x="245.6 252.8 260.0 267.2 274.4 281.6">......</text>
<text y="394" fill="#6f7d73" x="389.6 396.8 404.0 411.2 418.4 425.6 432.8">.......</text>
<text y="394" fill="#6f7d73" x="584.0 591.2">,,</text>
<text y="394" fill="#c8d3c5" x="915.2 922.4">││</text>
<text y="394" fill="#c8d3c5" x="1224.8">│</text>
<text y="409" fill="#c8d3c5" x="8.0">│</text>
<text y="409" fill="#6f7d73" x="94.4 101.6 108.8">,,,</text>
<text y="409" fill="#6f7d73" x="288.8 296.0 303.2 310.4 317.6 324.8 332.0 339.2 346.4 353.6 360.8 368.0 375.2 382.4 389.6">...............</text>
<text y="409" fill="#c8d3c5" x="526.4">o</text>
<text y="409" fill="#c8d3c5" x="540.8 548.0 555.2 562.4 569.6 576.8 584.0 591.2">Sheratan</text>
<text y="409" fill="#c8d3c5" x="915.2 922.4 929.6 936.8 944.0 951.2 958.4 965.6 972.8 980.0 987.2 994.4 1001.6 1008.8 1016.0 1023.2 1030.4 1037.6 1044.8 1052.0 1059.2 1066.4 1073.6 1080.8 1088.0 1095.2 1102.4 1109.6 1116.8 1124.0 1131.2 1138.4 1145.6 1152.8 1160.0 1167.2 1174.4 1181.6 1188.8 1196.0 1203.2 1210.4 1217.6 1224.8">│└─────────────────────────────────────────┘</text>
<text y="424" fill="#c8d3c5" x="8.0">│</text>
<text y="424" fill="#6f7d73" x="108.8 116.0 123.2">,,,</text>
<text y="424" fill="#6f7d73" x="555.2 562.4">,,</text>
<text y="424" fill="#c8d3c5" x="915.2 922.4">│┌</text>
<text y="424" fill="#c8d3c5" x="936.8 944.0 951.2 958.4 965.6">REACH</text>
<text y="424" fill="#c8d3c5" x="980.0 987.2 994.4 1001.6 1008.8 1016.0 1023.2 1030.4 1037.6 1044.8 1052.0 1059.2 1066.4 1073.6 1080.8 1088.0 1095.2 1102.4 1109.6 1116.8 1124.0 1131.2 1138.4 1145.6 1152.8 1160.0 1167.2 1174.4 1181.6 1188.8 1196.0 1203.2 1210.4 1217.6 1224.8">──────────────────────────────────┐</text>
<text y="439" fill="#c8d3c5" x="8.0">│</text>
<text y="439" fill="#6f7d73" x="123.2 130.4 137.6 144.8">,,,,</text>
<text y="439" fill="#c8d3c5" x="188.0">o</text>
<text y="439" fill="#c8d3c5" x="202.4 209.6 216.8 224.0 231.2 238.4 245.6 252.8">Outreach</text>
<text y="439" fill="#6f7d73" x="526.4 533.6 540.8 548.0">,,,,</text>
<text y="439" fill="#c8d3c5" x="915.2 922.4">││</text>
<text y="439" fill="#c8d3c5" x="936.8 944.0">in</text>
<text y="439" fill="#c8d3c5" x="958.4 965.6 972.8 980.0">ring</text>
<text y="439" fill="#c8d3c5" x="1052.0 1059.2">10</text>
<text y="439" fill="#c8d3c5" x="1073.6 1080.8 1088.0 1095.2 1102.4 1109.6">worlds</text>
<text y="439" fill="#c8d3c5" x="1224.8">│</text>
<text y="454" fill="#c8d3c5" x="8.0">│</text>
<text y="454" fill="#6f7d73" x="152.0 159.2 166.4">,,,</text>
<text y="454" fill="#6f7d73" x="504.8 512.0 519.2 526.4">,,,,</text>
<text y="454" fill="#c8d3c5" x="915.2 922.4">││</text>
<text y="454" fill="#c8d3c5" x="936.8 944.0 951.2 958.4 965.6 972.8 980.0 987.2 994.4">beachhead</text>
<text y="454" fill="#c8d3c5" x="1008.8 1016.0 1023.2 1030.4">band</text>
<text y="454" fill="#c8d3c5" x="1052.0 1059.2">13</text>
<text y="454" fill="#c8d3c5" x="1073.6 1080.8 1088.0 1095.2 1102.4 1109.6">worlds</text>
<text y="454" fill="#e0a33a" x="1131.2 1138.4 1145.6 1152.8">×1.3</text>
<text y="454" fill="#e0a33a" x="1167.2 1174.4 1181.6">pay</text>
<text y="454" fill="#c8d3c5" x="1224.8">│</text>
<text y="469" fill="#c8d3c5" x="8.0">│</text>
<text y="469" fill="#6f7d73" x="173.6 180.8 188.0 195.2 202.4">,,,,,</text>
<text y="469" fill="#6f7d73" x="476.0 483.2">,,</text>
<text y="469" fill="#c8d3c5" x="490.4">o</text>
<text y="469" fill="#6f7d73" x="497.6">,</text>
<text y="469" fill="#c8d3c5" x="504.8 512.0 519.2 526.4 533.6 540.8 548.0 555.2 562.4 569.6">Komephoros</text>
<text y="469" fill="#c8d3c5" x="915.2 922.4">││</text>
<text y="469" fill="#c8d3c5" x="936.8 944.0 951.2">out</text>
<text y="469" fill="#c8d3c5" x="965.6 972.8">of</text>
<text y="469" fill="#c8d3c5" x="987.2 994.4 1001.6 1008.8 1016.0">reach</text>
<text y="469" fill="#c8d3c5" x="1052.0">4</text>
<text y="469" fill="#c8d3c5" x="1066.4 1073.6 1080.8 1088.0 1095.2 1102.4">worlds</text>
<text y="469" fill="#c8d3c5" x="1224.8">│</text>
<text y="484" fill="#c8d3c5" x="8.0">│</text>
<text y="484" fill="#6f7d73" x="202.4 209.6 216.8 224.0 231.2">,,,,,</text>
<text y="484" fill="#c8d3c5" x="252.8">o</text>
<text y="484" fill="#c8d3c5" x="267.2 274.4 281.6">New</text>
<text y="484" fill="#c8d3c5" x="296.0 303.2 310.4 317.6">Home</text>
<text y="484" fill="#6f7d73" x="440.0 447.2 454.4 461.6 468.8">,,,,,</text>
<text y="484" fill="#c8d3c5" x="915.2 922.4">││</text>
<text y="484" fill="#c8d3c5" x="1224.8">│</text>
<text y="499" fill="#c8d3c5" x="8.0">│</text>
<text y="499" fill="#6f7d73" x="238.4 245.6 252.8 260.0 267.2 274.4 281.6 288.8">,,,,,,,,</text>
<text y="499" fill="#6f7d73" x="382.4 389.6 396.8 404.0 411.2 418.4 425.6 432.8 440.0">,,,,,,,,,</text>
<text y="499" fill="#c8d3c5" x="915.2 922.4">││</text>
<text y="499" fill="#c8d3c5" x="936.8 944.0 951.2 958.4 965.6 972.8 980.0">Solaris</text>
<text y="499" fill="#c8d3c5" x="994.4 1001.6 1008.8">VII</text>
<text y="499" fill="#c8d3c5" x="1023.2 1030.4 1037.6 1044.8 1052.0 1059.2 1066.4 1073.6">Regional</text>
<text y="499" fill="#c8d3c5" x="1088.0 1095.2">HQ</text>
<text y="499" fill="#c8d3c5" x="1116.8 1124.0 1131.2 1138.4">ring</text>
<text y="499" fill="#c8d3c5" x="1152.8 1160.0">75</text>
<text y="499" fill="#c8d3c5" x="1174.4 1181.6">LY</text>
<text y="499" fill="#c8d3c5" x="1196.0 1203.2 1210.4">(+3</text>
<text y="499" fill="#c8d3c5" x="1224.8">│</text>
<text y="514" fill="#c8d3c5" x="8.0">│</text>
<text y="514" fill="#6f7d73" x="296.0 303.2 310.4 317.6 324.8 332.0 339.2 346.4 353.6 360.8 368.0 375.2 382.4">,,,,,,,,,,,,,</text>
<text y="514" fill="#c8d3c5" x="915.2 922.4">││</text>
<text y="514" fill="#c8d3c5" x="1224.8">│</text>
<text y="529" fill="#c8d3c5" x="8.0">│</text>
<text y="529" fill="#6f7d73" x="346.4">o</text>
<text y="529" fill="#6f7d73" x="360.8 368.0 375.2 382.4 389.6">Terra</text>
<text y="529" fill="#6f7d73" x="404.0 411.2 418.4 425.6 432.8">Firma</text>
<text y="529" fill="#c8d3c5" x="915.2 922.4">││</text>
<text y="529" fill="#6f7d73" x="936.8 944.0 951.2 958.4 965.6">rings</text>
<text y="529" fill="#6f7d73" x="980.0 987.2 994.4 1001.6">grow</text>
<text y="529" fill="#6f7d73" x="1016.0 1023.2 1030.4 1037.6">with</text>
<text y="529" fill="#6f7d73" x="1052.0 1059.2 1066.4 1073.6 1080.8">comms</text>
<text y="529" fill="#6f7d73" x="1095.2 1102.4 1109.6">and</text>
<text y="529" fill="#6f7d73" x="1124.0 1131.2 1138.4 1145.6 1152.8 1160.0 1167.2 1174.4 1181.6">spaceport</text>
<text y="529" fill="#6f7d73" x="1196.0 1203.2 1210.4">lev</text>
<text y="529" fill="#c8d3c5" x="1224.8">│</text>
<text y="544" fill="#c8d3c5" x="8.0">│</text>
<text y="544" fill="#6f7d73" x="447.2">o</text>
<text y="544" fill="#6f7d73" x="461.6 468.8 476.0 483.2 490.4 497.6 504.8">Epsilon</text>
<text y="544" fill="#6f7d73" x="519.2 526.4 533.6 540.8 548.0 555.2 562.4">Eridani</text>
<text y="544" fill="#c8d3c5" x="915.2 922.4">││</text>
<text y="544" fill="#c8d3c5" x="1224.8">│</text>
<text y="559" fill="#c8d3c5" x="8.0">│</text>
<text y="559" fill="#c8d3c5" x="915.2 922.4">││</text>
<text y="559" fill="#c8d3c5" x="1224.8">│</text>
<text y="574" fill="#c8d3c5" x="8.0">│</text>
<text y="574" fill="#c8d3c5" x="915.2 922.4">││</text>
<text y="574" fill="#c8d3c5" x="1224.8">│</text>
<text y="589" fill="#c8d3c5" x="8.0">│</text>
<text y="589" fill="#c8d3c5" x="915.2 922.4">││</text>
<text y="589" fill="#c8d3c5" x="1224.8">│</text>
<text y="604" fill="#c8d3c5" x="8.0">│</text>
<text y="604" fill="#c8d3c5" x="915.2 922.4">││</text>
<text y="604" fill="#c8d3c5" x="1224.8">│</text>
<text y="619" fill="#c8d3c5" x="8.0">│</text>
<text y="619" fill="#c8d3c5" x="915.2 922.4">││</text>
<text y="619" fill="#c8d3c5" x="1224.8">│</text>
<text y="634" fill="#c8d3c5" x="8.0">│</text>
<text y="634" fill="#c8d3c5" x="915.2 922.4">││</text>
<text y="634" fill="#c8d3c5" x="1224.8">│</text>
<text y="649" fill="#c8d3c5" x="8.0">│</text>
<text y="649" fill="#6f7d73" x="22.4">@</text>
<text y="649" fill="#6f7d73" x="36.8 44.0">HQ</text>
<text y="649" fill="#6f7d73" x="72.8">*</text>
<text y="649" fill="#6f7d73" x="87.2 94.4 101.6 108.8 116.0 123.2">cursor</text>
<text y="649" fill="#6f7d73" x="152.0">^</text>
<text y="649" fill="#6f7d73" x="166.4 173.6 180.8 188.0 195.2 202.4">offers</text>
<text y="649" fill="#6f7d73" x="231.2">+</text>
<text y="649" fill="#6f7d73" x="245.6 252.8 260.0 267.2 274.4 281.6 288.8">company</text>
<text y="649" fill="#6f7d73" x="317.6">.</text>
<text y="649" fill="#6f7d73" x="332.0 339.2 346.4 353.6 360.8 368.0 375.2 382.4 389.6">influence</text>
<text y="649" fill="#6f7d73" x="404.0 411.2 418.4 425.6">ring</text>
<text y="649" fill="#6f7d73" x="454.4">,</text>
<text y="649" fill="#6f7d73" x="468.8 476.0 483.2 490.4 497.6 504.8 512.0 519.2 526.4">beachhead</text>
<text y="649" fill="#6f7d73" x="540.8 548.0 555.2 562.4">band</text>
<text y="649" fill="#6f7d73" x="591.2 598.4 605.6">dim</text>
<text y="649" fill="#6f7d73" x="620.0">=</text>
<text y="649" fill="#6f7d73" x="634.4 641.6 648.8">out</text>
<text y="649" fill="#6f7d73" x="663.2 670.4">of</text>
<text y="649" fill="#6f7d73" x="684.8 692.0 699.2 706.4 713.6">reach</text>
<text y="649" fill="#c8d3c5" x="915.2 922.4">││</text>
<text y="649" fill="#c8d3c5" x="1224.8">│</text>
<text y="664" fill="#c8d3c5" x="8.0 15.2 22.4 29.6 36.8 44.0 51.2 58.4 65.6 72.8 80.0 87.2 94.4 101.6 108.8 116.0 123.2 130.4 137.6 144.8 152.0 159.2 166.4 173.6 180.8 188.0 195.2 202.4 209.6 216.8 224.0 231.2 238.4 245.6 252.8 260.0 267.2 274.4 281.6 288.8 296.0 303.2 310.4 317.6 324.8 332.0 339.2 346.4 353.6 360.8 368.0 375.2 382.4 389.6 396.8 404.0 411.2 418.4 425.6 432.8 440.0 447.2 454.4 461.6 468.8 476.0 483.2 490.4 497.6 504.8 512.0 519.2 526.4 533.6 540.8 548.0 555.2 562.4 569.6 576.8 584.0 591.2 598.4 605.6 612.8 620.0 627.2 634.4 641.6 648.8 656.0 663.2 670.4 677.6 684.8 692.0 699.2 706.4 713.6 720.8 728.0 735.2 742.4 749.6 756.8 764.0 771.2 778.4 785.6 792.8 800.0 807.2 814.4 821.6 828.8 836.0 843.2 850.4 857.6 864.8 872.0 879.2 886.4 893.6 900.8 908.0 915.2 922.4 929.6 936.8 944.0 951.2 958.4 965.6 972.8 980.0 987.2 994.4 1001.6 1008.8 1016.0 1023.2 1030.4 1037.6 1044.8 1052.0 1059.2 1066.4 1073.6 1080.8 1088.0 1095.2 1102.4 1109.6 1116.8 1124.0 1131.2 1138.4 1145.6 1152.8 1160.0 1167.2 1174.4 1181.6 1188.8 1196.0 1203.2 1210.4 1217.6 1224.8">└─────────────────────────────────────────────────────────────────────────────────────────────────────────────────────────────┘└─────────────────────────────────────────┘</text>
<text y="679" fill="#7fc97f" x="8.0 15.2 22.4">day</text>
<text y="679" fill="#7fc97f" x="36.8 44.0">40</text>
<text y="679" fill="#7fc97f" x="58.4">·</text>
<text y="679" fill="#7fc97f" x="72.8 80.0 87.2 94.4 101.6 108.8 116.0 123.2 130.4 137.6">3025-02-10</text>
<text y="679" fill="#6f7d73" x="612.8">h</text>
<text y="679" fill="#6f7d73" x="627.2">j</text>
<text y="679" fill="#6f7d73" x="641.6">k</text>
<text y="679" fill="#6f7d73" x="656.0">l</text>
<text y="679" fill="#6f7d73" x="670.4 677.6 684.8 692.0">move</text>
<text y="679" fill="#6f7d73" x="706.4 713.6 720.8 728.0 735.2 742.4 749.6">between</text>
<text y="679" fill="#6f7d73" x="764.0 771.2 778.4 785.6 792.8 800.0">worlds</text>
<text y="679" fill="#6f7d73" x="814.4">·</text>
<text y="679" fill="#6f7d73" x="828.8">f</text>
<text y="679" fill="#6f7d73" x="843.2 850.4 857.6 864.8 872.0">found</text>
<text y="679" fill="#6f7d73" x="886.4 893.6">HQ</text>
<text y="679" fill="#6f7d73" x="908.0 915.2 922.4 929.6">here</text>
<text y="679" fill="#6f7d73" x="944.0">·</text>
<text y="679" fill="#6f7d73" x="958.4">o</text>
<text y="679" fill="#6f7d73" x="972.8 980.0 987.2 994.4 1001.6 1008.8">offers</text>
<text y="679" fill="#6f7d73" x="1023.2 1030.4 1037.6 1044.8">here</text>
<text y="679" fill="#6f7d73" x="1059.2">·</text>
<text y="679" fill="#6f7d73" x="1073.6">n</text>
<text y="679" fill="#6f7d73" x="1088.0 1095.2 1102.4">end</text>
<text y="679" fill="#6f7d73" x="1116.8 1124.0 1131.2 1138.4">turn</text>
<text y="679" fill="#6f7d73" x="1152.8">·</text>
<text y="679" fill="#6f7d73" x="1167.2">q</text>
<text y="679" fill="#6f7d73" x="1181.6 1188.8 1196.0 1203.2 1210.4 1217.6 1224.8">welcome</text>
</g></svg>